<svg id="Ebene_1" data-name="Ebene 1" xmlns="http://www.w3.org/2000/svg" width="195" height="65" viewBox="0 0 195 65">
  <title>DHL_monogram_rgb_bg</title>
  <path d="M41.3993,41.9192H0v8.0983H35.4487ZM0,65H24.4138l5.9238-8.0432H0Zm122.3223-40.83c-2.0077,2.717-5.37,7.45-7.4151,10.21-1.0382,1.4-2.915,3.9562,3.3062,3.9562H149.751s5.2749-7.18,9.6987-13.1811C165.4667,16.9877,159.97,0,138.4622,0H53.7609L39.0756,19.9525h81.2312C124.3519,19.9525,124.2989,21.4894,122.3223,24.169ZM52.4685,26.8922H0V34.98H46.506ZM138.8754,65H195V56.9121H144.8183Zm5.7066-19.726H108.24l-13.8-.0007c-6.22,0-4.3428-2.5564-3.3047-3.9593,2.0452-2.7622,5.4877-7.4873,7.4954-10.2074,1.9766-2.68,3.2022-4.2149-.8445-4.2149H61.1823L33.1328,65h71.93C126.3933,65,139.2307,51.9776,144.582,45.274Zm22.3206-18.3813-5.9238,8.0433H195V26.8927Zm-16.9855,23.08H195V41.8748H155.8677Z" fill="#d40511"/>
</svg>
